{"title":"Star.Wars.Rebels.S02E17.Shroud.of.Darkness.480p.x264-ZED","uid":13723744,"size":137163002,"categoryP":"video","categoryS":"tv_shows","magnet":"?xt=urn:btih:4463a0d2c093f4a14a240ab3400c6d18f438f8d6&amp;dn=Star.Wars.Rebels.S02E17.Shroud.of.Darkness.480p.x264-ZED&amp;tr=udp%3A%2F%2Ftracker.leechers-paradise.org%3A6969&amp;tr=udp%3A%2F%2Fzer0day.ch%3A1337&amp;tr=udp%3A%2F%2Fopen.demonii.com%3A1337&amp;tr=udp%3A%2F%2Ftracker.coppersurfer.tk%3A6969&amp;tr=udp%3A%2F%2Fexodus.desync.com%3A6969","seeders":2,"leechers":0,"uploader":"medorc","files":2,"time":1456960478,"description":"Screenshot \nhttps://yuq.me/users/48/909/OyT3dSbu6n.jpg\r\n\r\nGeneral\r\nComplete name : Star_Wars_Rebels S02E17 Shroud_of_Darkness 480p x264.mp4\r\nFormat : MPEG-4\r\nFormat profile : Base Media\r\nCodec ID : isom\r\nFile size : 131 MiB\r\nDuration : 22mn 3s\r\nOverall bit rate mode : Variable\r\nOverall bit rate : 829 Kbps\r\nWriting application : Master Zed ;)\r\n\r\nVideo\r\nID : 1\r\nFormat : AVC\r\nFormat/Info : Advanced Video Codec\r\nFormat profile :   \r\nFormat settings, CABAC : Yes\r\nFormat settings, ReFrames : 16 frames\r\nCodec ID : avc1\r\nCodec ID/Info : Advanced Video Coding\r\nDuration : 22mn 3s\r\nBit rate : 695 Kbps\r\nWidth : 852 pixels\r\nHeight : 480 pixels\r\nDisplay aspect ratio : 16:9\r\nFrame rate mode : Constant\r\nFrame rate : 23.976 fps\r\nColor space : YUV\r\nChroma subsampling : 4:2:0\r\nBit depth : 8 bits\r\nScan type : Progressive\r\nBits/(Pixel*Frame) : 0.071\r\nStream size : 110 MiB (84%)\r\nWriting library : x264 core 142 r2479 dd79a61\r\nColor primaries : BT.709\r\nTransfer characteristics : BT.709\r\nMatrix coefficients : BT.709\r\n\r\nAudio\r\nID : 2\r\nFormat : AAC\r\nFormat/Info : Advanced Audio Codec\r\nFormat profile : LC\r\nCodec ID : 40\r\nDuration : 22mn 3s\r\nBit rate mode : Variable\r\nBit rate : 128 Kbps\r\nMaximum bit rate : 200 Kbps\r\nChannel(s) : 2 channels\r\nChannel positions : Front: L R\r\nSampling rate : 48.0 KHz\r\nCompression mode : Lossy\r\nStream size : 20.2 MiB (15%)\r\nLanguage : English\r\n\r\nText\r\nID : 3\r\nFormat : Timed Text\r\nMuxing mode : sbtl\r\nCodec ID : tx3g\r\nDuration : 22mn 3s\r\nBit rate mode : Variable\r\nBit rate : 54 bps\r\nStream size : 8.70 KiB (0%)\r\nLanguage : English","torrent":{"xt":"urn:btih:4463a0d2c093f4a14a240ab3400c6d18f438f8d6","amp;dn":"Star.Wars.Rebels.S02E17.Shroud.of.Darkness.480p.x264-ZED","amp;tr":["udp%3A%2F%2Ftracker.leechers-paradise.org%3A6969","udp%3A%2F%2Fzer0day.ch%3A1337","udp%3A%2F%2Fopen.demonii.com%3A1337","udp%3A%2F%2Ftracker.coppersurfer.tk%3A6969","udp%3A%2F%2Fexodus.desync.com%3A6969"],"infoHash":"4463a0d2c093f4a14a240ab3400c6d18f438f8d6","infoHashBuffer":{"type":"Buffer","data":[68,99,160,210,192,147,244,161,74,36,10,179,64,12,109,24,244,56,248,214]},"announce":[],"urlList":[]}}